<?xml version="1.0" standalone="no"?>
<!DOCTYPE svg PUBLIC "-//W3C//DTD SVG 20010904//EN"
 "http://www.w3.org/TR/2001/REC-SVG-20010904/DTD/svg10.dtd">
<svg version="1.0" xmlns="http://www.w3.org/2000/svg"
 width="558.000000pt" height="558.000000pt" viewBox="0 0 558.000000 558.000000"
 preserveAspectRatio="xMidYMid meet">
<metadata>
Created by potrace 1.14, written by Peter Selinger 2001-2017
</metadata>
<g transform="translate(0.000000,558.000000) scale(0.100000,-0.100000)"
fill="#000000" stroke="none">
<path d="M2569 5366 c-2 -2 -33 -7 -69 -10 -87 -9 -185 -22 -185 -26 0 -1 -16
-3 -35 -6 -86 -11 -369 -95 -454 -135 -22 -10 -43 -16 -48 -13 -4 3 -8 0 -8
-5 0 -6 -5 -11 -10 -11 -29 0 -370 -182 -378 -202 -2 -4 -10 -8 -17 -8 -8 0
-21 -7 -29 -16 -9 -9 -40 -32 -69 -51 -28 -20 -56 -42 -60 -50 -4 -7 -14 -13
-22 -13 -7 0 -15 -3 -17 -7 -1 -5 -34 -35 -73 -68 -123 -106 -265 -257 -352
-373 -10 -13 -23 -29 -29 -36 -6 -6 -36 -50 -67 -96 -31 -47 -61 -91 -67 -97
-6 -7 -7 -13 -3 -13 4 0 4 -4 -2 -8 -15 -11 -103 -178 -159 -302 -41 -91 -128
-360 -142 -437 -5 -29 -11 -61 -18 -93 -3 -13 -8 -42 -11 -65 -3 -22 -8 -47
-10 -55 -19 -72 -27 -489 -12 -615 5 -38 10 -83 12 -100 1 -16 5 -41 8 -55 4
-14 9 -41 11 -60 9 -63 63 -263 95 -355 17 -49 33 -94 34 -100 2 -5 10 -26 19
-45 8 -19 26 -60 39 -90 33 -77 147 -282 162 -292 6 -4 8 -8 3 -8 -4 0 3 -15
18 -34 14 -19 26 -39 26 -44 0 -6 3 -12 8 -14 4 -1 25 -28 47 -58 22 -30 45
-59 52 -63 7 -4 13 -14 13 -22 0 -7 4 -15 8 -17 5 -1 36 -35 70 -75 94 -109
307 -313 328 -313 3 0 12 -7 20 -15 9 -8 46 -36 82 -62 37 -26 68 -51 70 -55
2 -5 10 -8 18 -8 8 0 14 -4 14 -10 0 -5 5 -10 10 -10 6 0 36 -16 66 -35 30
-19 59 -35 64 -35 6 0 10 -4 10 -10 0 -5 3 -9 8 -8 4 1 59 -24 122 -56 63 -31
117 -57 120 -58 7 -1 51 -17 75 -27 18 -8 50 -20 98 -35 9 -3 19 -4 21 -3 1 1
10 -4 19 -12 10 -7 17 -11 17 -8 0 4 18 0 40 -8 22 -8 40 -12 40 -8 0 3 6 1
13 -5 7 -6 29 -14 48 -16 19 -3 52 -10 74 -15 22 -6 54 -12 70 -15 17 -3 46
-8 65 -11 193 -35 611 -40 760 -10 30 6 87 16 115 19 11 1 34 6 50 9 17 4 40
10 53 12 42 9 57 13 132 35 41 11 82 23 90 25 17 3 139 50 185 70 17 8 37 15
45 17 8 2 17 5 20 8 3 3 39 21 80 40 41 19 83 41 93 49 9 8 17 10 17 5 0 -5 4
-4 8 2 4 6 27 21 52 35 25 13 49 27 55 32 5 4 48 32 94 63 46 31 91 62 100 70
9 7 43 34 76 61 130 103 245 219 364 364 100 124 161 206 161 219 0 5 6 15 13
22 17 16 95 150 95 162 0 5 4 12 9 15 11 8 37 63 35 74 -1 4 2 7 7 7 5 0 13
10 17 22 4 13 17 46 29 73 24 55 38 87 39 95 1 3 4 10 7 15 7 10 62 172 65
190 1 6 7 30 15 55 7 25 13 50 15 55 1 6 7 30 13 55 13 51 16 64 26 140 4 30
8 57 10 60 11 18 19 187 19 370 -1 209 -4 250 -19 355 -5 28 -9 59 -11 70 -1
11 -3 20 -4 20 -1 0 -3 11 -5 25 -16 111 -78 325 -140 480 -58 144 -218 442
-249 462 -6 4 -7 8 -1 8 6 0 6 3 0 8 -6 4 -35 41 -65 82 -29 41 -59 80 -64 86
-6 6 -31 35 -56 65 -59 70 -212 223 -274 274 -27 22 -57 47 -67 55 -48 40 -88
69 -153 113 -39 26 -81 55 -93 63 -44 32 -315 172 -348 180 -5 2 -44 16 -85
33 -112 44 -114 45 -125 46 -5 1 -44 12 -85 25 -91 29 -75 25 -137 35 -29 4
-53 13 -53 19 0 6 -5 4 -10 -4 -5 -8 -10 -10 -10 -3 0 6 -21 13 -47 16 -74 9
-125 16 -158 23 -34 7 -489 16 -496 10z m311 -240 c74 -3 149 -8 165 -11 17
-2 46 -6 65 -9 19 -3 49 -7 65 -10 17 -3 41 -8 55 -10 14 -3 25 -5 25 -6 0 -1
14 -4 30 -6 83 -14 300 -85 425 -140 82 -37 192 -96 311 -167 145 -88 419
-328 529 -466 19 -24 40 -48 46 -55 5 -6 39 -54 75 -106 35 -52 66 -97 69
-100 15 -15 113 -202 150 -285 12 -27 26 -59 31 -70 5 -11 18 -47 30 -80 11
-33 23 -67 27 -75 6 -16 9 -28 13 -57 1 -5 5 -16 10 -25 5 -9 16 -50 25 -90
31 -140 37 -175 51 -288 10 -86 10 -436 -1 -525 -5 -38 -9 -78 -9 -87 -1 -10
-4 -18 -7 -18 -3 0 -6 -8 -6 -17 -1 -22 -17 -119 -23 -140 -1 -2 -2 -6 -3 -10
-14 -66 -72 -251 -94 -300 -8 -17 -14 -33 -14 -36 0 -3 -14 -36 -32 -74 -17
-37 -32 -70 -32 -73 -6 -32 -212 -362 -240 -385 -7 -5 -17 -17 -22 -27 -26
-47 -229 -259 -314 -329 -23 -19 -54 -44 -68 -57 -15 -12 -45 -35 -67 -50 -22
-15 -42 -29 -45 -32 -3 -3 -27 -20 -55 -38 -27 -17 -55 -35 -61 -39 -22 -17
-289 -158 -289 -153 0 2 -37 -11 -80 -30 -41 -18 -197 -69 -272 -89 -66 -18
-251 -50 -328 -58 -96 -10 -383 -10 -475 0 -130 13 -228 31 -355 64 -33 8 -64
16 -70 18 -5 1 -23 7 -38 13 -16 7 -33 12 -38 12 -23 0 -337 134 -349 149 -3
3 -27 17 -55 31 -61 31 -229 139 -233 151 -2 5 -10 9 -17 9 -7 0 -15 3 -17 8
-1 4 -16 17 -32 30 -181 140 -380 359 -511 562 -76 119 -128 210 -118 210 5 0
3 4 -3 8 -8 6 -45 74 -49 92 -1 3 -11 27 -23 53 -44 98 -118 330 -127 397 -1
8 -5 29 -8 45 -4 17 -8 41 -11 55 -2 14 -7 41 -11 62 -13 70 -15 105 -19 308
-2 113 0 230 4 260 5 30 11 75 14 100 8 66 22 138 40 211 21 85 27 111 28 127
1 6 5 12 10 12 4 0 8 9 8 20 0 44 140 366 203 465 65 103 81 131 79 138 -1 4
2 7 7 7 5 0 23 22 40 49 18 27 42 60 54 74 12 13 38 44 57 67 91 114 269 280
393 368 29 20 57 40 62 44 22 17 111 75 125 81 8 4 30 16 47 27 55 33 144 77
233 116 102 43 320 115 331 108 4 -2 10 0 13 5 3 4 25 12 48 16 24 5 45 9 48
10 3 0 27 4 53 9 27 4 56 9 65 11 44 8 115 15 202 21 52 3 96 7 98 9 2 2 9 2
15 0 7 -2 73 -6 147 -9z"/>
<path d="M2628 4725 c-2 -2 -34 -6 -71 -10 -37 -3 -78 -8 -90 -11 -12 -2 -33
-6 -47 -9 -82 -16 -115 -24 -225 -57 -55 -17 -105 -34 -111 -39 -6 -5 -14 -6
-17 -2 -4 3 -7 2 -7 -4 0 -5 -6 -10 -12 -10 -7 0 -48 -17 -90 -37 -43 -20 -81
-37 -85 -38 -5 -1 -12 -6 -18 -10 -5 -5 -50 -33 -100 -64 -49 -31 -93 -61 -97
-67 -4 -7 -8 -7 -8 -2 0 6 -6 3 -13 -5 -7 -9 -27 -26 -45 -39 -67 -47 -252
-224 -252 -241 0 -6 -4 -10 -8 -10 -17 0 -55 -64 -58 -99 -2 -20 -6 -59 -9
-86 l-5 -51 37 -3 c21 -2 54 -5 73 -6 19 -2 35 -4 35 -4 0 -1 29 -4 65 -7 86
-6 155 -12 155 -14 0 -1 66 -7 143 -12 28 -1 52 -5 52 -8 0 -3 24 -6 53 -6 28
-1 84 -5 122 -9 39 -4 86 -8 106 -9 31 0 36 -4 33 -20 -2 -10 -4 -37 -5 -60
-1 -22 -6 -46 -11 -53 -5 -7 -5 -14 2 -18 6 -3 8 -10 5 -15 -7 -11 -16 -98
-30 -265 -3 -33 -7 -80 -10 -105 -3 -25 -7 -72 -10 -105 -5 -67 -14 -162 -20
-215 -8 -64 -16 -155 -20 -205 -4 -60 -14 -167 -20 -215 -4 -31 -9 -80 -20
-205 -7 -85 -17 -191 -20 -210 -1 -11 -3 -30 -4 -42 -1 -18 -6 -21 -38 -17
-102 10 -164 15 -223 19 -36 3 -78 7 -95 9 -16 3 -61 8 -100 11 -38 4 -90 9
-115 11 -25 3 -67 7 -95 9 -137 12 -191 17 -197 21 -9 6 -15 -24 -23 -109 -5
-60 -2 -73 20 -113 26 -47 115 -186 125 -194 3 -3 21 -25 40 -50 19 -25 37
-47 40 -50 3 -3 32 -34 65 -70 69 -74 225 -217 225 -206 0 3 15 -8 32 -25 18
-16 36 -29 41 -29 4 0 17 -9 29 -20 12 -11 28 -20 35 -20 7 0 13 -4 13 -9 0
-5 17 -18 38 -28 20 -11 74 -38 119 -61 44 -23 86 -42 92 -42 6 0 11 -4 11
-10 0 -5 3 -9 8 -8 4 0 14 -2 22 -5 41 -17 250 -86 250 -82 0 2 15 -1 33 -6
183 -56 570 -70 766 -28 26 5 59 11 72 13 13 2 44 9 69 16 25 7 50 13 55 15 6
1 17 5 25 8 8 3 36 11 63 18 26 7 47 17 47 21 0 4 3 7 8 6 7 -3 37 8 112 39
107 44 330 174 375 219 8 9 15 13 15 10 0 -3 8 2 18 12 10 9 41 36 68 59 71
60 165 154 204 204 19 24 37 46 41 49 3 3 7 28 8 55 7 120 7 120 -14 121 -24
2 -153 14 -210 20 -22 3 -67 7 -100 9 -33 3 -76 7 -95 9 -19 2 -66 7 -105 10
-38 3 -90 8 -115 11 -57 6 -168 16 -199 18 -23 1 -23 2 -16 90 3 48 8 96 10
105 1 9 6 55 10 102 3 47 8 101 10 120 2 19 6 69 10 110 3 41 7 86 9 100 3 14
8 61 11 105 4 44 9 94 10 110 2 17 6 66 10 110 3 44 8 91 10 105 2 14 7 57 10
95 3 39 7 90 10 115 2 25 7 74 10 110 3 36 8 81 10 100 2 19 6 62 9 95 4 33 9
85 12 115 5 52 18 75 36 64 5 -3 38 -7 76 -9 37 -2 67 -4 67 -5 0 -1 20 -4 45
-6 25 -2 68 -6 95 -8 28 -3 75 -8 105 -11 30 -2 78 -7 105 -10 88 -9 189 -17
237 -19 27 0 48 -3 48 -6 0 -3 14 -6 30 -6 34 -2 37 4 44 96 2 30 6 60 8 66 3
10 -105 201 -121 214 -3 3 -26 32 -50 65 -25 33 -56 73 -70 89 -38 43 -196
199 -213 211 -9 6 -40 29 -69 53 -30 23 -58 46 -64 50 -80 63 -326 192 -445
232 -36 12 -74 26 -85 31 -11 5 -31 11 -45 13 -14 2 -37 9 -52 15 -16 6 -28 9
-28 6 0 -2 -15 1 -32 6 -35 10 -55 14 -128 24 -25 4 -56 9 -70 11 -28 5 -358
13 -362 9z m306 -239 c91 -11 132 -16 151 -20 153 -31 325 -91 453 -158 69
-36 234 -140 258 -163 6 -5 33 -28 60 -50 78 -64 214 -207 214 -225 0 -6 3
-10 8 -10 4 0 15 -12 26 -26 l19 -26 -66 6 c-36 4 -76 9 -89 11 -13 2 -63 6
-113 10 -49 4 -103 8 -120 10 -16 2 -59 7 -95 10 -36 3 -81 7 -100 10 -19 2
-71 7 -115 10 -44 4 -93 8 -110 10 -16 2 -59 7 -95 10 -36 3 -81 8 -100 10
-19 2 -70 7 -114 10 -43 4 -93 8 -110 10 -17 2 -65 6 -106 10 -41 3 -86 7
-100 10 -14 2 -59 7 -100 10 -41 3 -93 8 -115 10 -22 2 -74 7 -115 10 -41 4
-86 8 -100 10 -14 2 -59 6 -100 10 -41 3 -91 8 -110 10 -19 2 -69 7 -110 11
-41 4 -88 8 -105 9 -16 2 -67 6 -113 10 -46 4 -82 11 -80 15 5 13 169 147 198
162 14 7 27 16 30 19 15 19 277 151 293 148 1 0 25 8 54 20 107 42 268 77 403
87 41 4 76 7 77 8 4 3 194 -3 237 -8z m-414 -773 c36 -3 80 -5 98 -5 17 0 32
-3 32 -7 0 -3 19 -6 43 -5 23 0 49 -3 58 -7 9 -5 21 -3 27 3 7 7 12 8 12 3 0
-6 17 -11 38 -12 20 0 69 -4 107 -8 39 -4 90 -8 115 -10 25 -2 45 -4 45 -5 0
-1 23 -4 50 -6 40 -2 106 -7 178 -13 8 -1 5 -70 -7 -201 -2 -19 -6 -64 -10
-100 -3 -36 -9 -92 -12 -125 -3 -33 -7 -82 -9 -110 -2 -27 -4 -50 -5 -50 -1 0
-3 -18 -5 -40 -6 -68 -15 -168 -19 -200 -3 -16 -7 -65 -11 -108 -3 -42 -8 -96
-10 -120 -2 -23 -7 -68 -10 -99 -3 -32 -7 -82 -10 -110 -16 -160 -26 -272 -30
-328 -2 -25 -4 -45 -5 -45 -2 0 -6 -43 -9 -93 -1 -23 -3 -23 -73 -17 -141 13
-195 18 -308 30 -30 3 -82 8 -115 10 -33 3 -76 7 -95 9 -19 2 -69 7 -110 10
-41 4 -97 10 -125 13 -27 3 -66 7 -85 8 -19 1 -39 3 -43 4 -4 0 -6 18 -3 39 3
20 8 66 11 102 3 36 8 81 10 100 3 19 7 67 10 105 3 39 7 90 10 115 2 25 7 72
10 105 6 77 11 125 29 315 18 180 24 248 31 328 11 118 15 168 21 217 8 75 12
122 20 210 6 68 9 100 13 113 1 1 18 0 39 -3 20 -3 66 -8 102 -12z m-910
-1918 c14 -3 57 -7 95 -10 39 -3 93 -7 120 -10 54 -5 122 -11 225 -20 36 -3
83 -8 105 -10 75 -9 130 -14 200 -20 39 -3 88 -8 110 -10 80 -9 161 -17 210
-20 28 -2 71 -6 95 -9 25 -3 77 -8 115 -11 39 -3 88 -8 110 -10 22 -2 67 -7
100 -10 33 -3 78 -7 100 -10 22 -2 72 -7 110 -10 39 -3 88 -8 110 -10 22 -2
69 -7 105 -10 36 -3 88 -8 115 -11 28 -3 72 -7 98 -9 115 -10 172 -16 173 -18
1 -1 -28 -28 -65 -59 -153 -127 -334 -228 -526 -293 -60 -20 -117 -40 -125
-42 -8 -3 -24 -7 -35 -8 -11 -1 -36 -6 -55 -10 -19 -4 -48 -9 -65 -10 -16 -2
-30 -4 -30 -5 0 -12 -324 -18 -415 -7 -76 9 -245 42 -245 47 0 1 -10 3 -22 6
-33 6 -176 56 -189 65 -6 5 -14 6 -17 2 -4 -3 -7 0 -7 7 0 7 -3 11 -6 7 -9 -9
-180 83 -269 144 -43 30 -84 59 -93 64 -46 31 -194 175 -251 245 -19 24 -41
48 -48 56 -7 7 -13 15 -13 19 0 6 134 -1 180 -10z"/>
</g>
</svg>
